<svg width="43" height="44" viewBox="0 0 43 44" fill="none" xmlns="http://www.w3.org/2000/svg">
<path d="M9.40625 20.6562H36.2812C36.6376 20.6562 36.9794 20.7978 37.2314 21.0498C37.4834 21.3018 37.625 21.6436 37.625 22C37.625 22.3564 37.4834 22.6982 37.2314 22.9502C36.9794 23.2022 36.6376 23.3438 36.2812 23.3438H9.40625C9.04987 23.3438 8.70808 23.2022 8.45608 22.9502C8.20407 22.6982 8.0625 22.3564 8.0625 22C8.0625 21.6436 8.20407 21.3018 8.45608 21.0498C8.70808 20.7978 9.04987 20.6562 9.40625 20.6562Z" fill="#0B0B0B"/>
<path d="M9.96252 22.0002L21.1076 33.1426C21.3599 33.3949 21.5017 33.7371 21.5017 34.094C21.5017 34.4508 21.3599 34.793 21.1076 35.0454C20.8553 35.2977 20.513 35.4394 20.1562 35.4394C19.7994 35.4394 19.4572 35.2977 19.2048 35.0454L7.11109 22.9516C6.98595 22.8268 6.88666 22.6785 6.81892 22.5152C6.75118 22.352 6.71631 22.177 6.71631 22.0002C6.71631 21.8235 6.75118 21.6485 6.81892 21.4852C6.88666 21.322 6.98595 21.1737 7.11109 21.0489L19.2048 8.95511C19.4572 8.70279 19.7994 8.56104 20.1562 8.56104C20.513 8.56104 20.8553 8.70279 21.1076 8.95511C21.3599 9.20743 21.5017 9.54965 21.5017 9.90648C21.5017 10.2633 21.3599 10.6055 21.1076 10.8579L9.96252 22.0002Z" fill="#0B0B0B"/>
</svg>
