<svg width="24" height="24" viewBox="0 0 24 24" fill="none" xmlns="http://www.w3.org/2000/svg">
<path d="M2.21996 2.22002C2.09313 2.34688 2.01597 2.51501 2.00249 2.69389C1.989 2.87278 2.04008 3.05057 2.14646 3.19502L2.21996 3.28052L6.25496 7.31552C4.28787 8.6939 2.88354 10.7352 2.29946 13.065C2.25645 13.2561 2.28994 13.4565 2.39275 13.6233C2.49556 13.79 2.65954 13.9099 2.84962 13.9574C3.0397 14.0048 3.24078 13.976 3.40988 13.877C3.57897 13.7781 3.70265 13.6169 3.75446 13.428C4.27311 11.3602 5.55074 9.56315 7.33346 8.39402L9.14396 10.2045C8.4177 10.9595 8.01654 11.9692 8.02669 13.0167C8.03684 14.0643 8.45747 15.066 9.19822 15.8068C9.93897 16.5475 10.9407 16.9681 11.9883 16.9783C13.0358 16.9884 14.0455 16.5873 14.8005 15.861L20.7195 21.78C20.8533 21.9133 21.0325 21.9912 21.2213 21.9981C21.41 22.005 21.5944 21.9404 21.7377 21.8173C21.8809 21.6942 21.9724 21.5215 21.9938 21.3338C22.0153 21.1462 21.9652 20.9573 21.8535 20.805L21.78 20.7195L15.6675 14.6055V14.604L14.4675 13.4055L11.598 10.536L8.71946 7.65752L7.58696 6.52502L3.28046 2.22002C3.13982 2.07941 2.94908 2.00043 2.75021 2.00043C2.55134 2.00043 2.36061 2.07941 2.21996 2.22002ZM10.2045 11.265L13.7385 14.8005C13.2664 15.2536 12.6356 15.5036 11.9813 15.4969C11.327 15.4902 10.7015 15.2274 10.2388 14.7647C9.77612 14.302 9.51324 13.6764 9.50654 13.0222C9.49984 12.3679 9.75136 11.7371 10.2045 11.265ZM12 5.50052C10.9995 5.50052 10.029 5.64752 9.11096 5.92502L10.3485 7.16102C12.4881 6.7372 14.7087 7.15177 16.5513 8.31902C18.3939 9.48627 19.7175 11.3169 20.2485 13.4325C20.3003 13.6214 20.4239 13.7826 20.593 13.8815C20.7621 13.9805 20.9632 14.0093 21.1533 13.9619C21.3434 13.9144 21.5074 13.7945 21.6102 13.6278C21.713 13.461 21.7465 13.2606 21.7035 13.0695C21.1609 10.907 19.9113 8.98764 18.1533 7.61634C16.3953 6.24504 14.2296 5.50035 12 5.50052ZM12.195 9.01052L15.996 12.81C15.9473 11.8177 15.5312 10.8789 14.8286 10.1764C14.1261 9.47382 13.1873 9.05922 12.195 9.01052Z" fill="black"/>
</svg>
