<svg width="24" height="25" viewBox="0 0 24 25" fill="none" xmlns="http://www.w3.org/2000/svg">
<g clip-path="url(#clip0_114_1421)">
<path fill-rule="evenodd" clip-rule="evenodd" d="M21.4163 8.43715L12.4163 2.43715C12.1642 2.269 11.8358 2.269 11.5837 2.43715L2.58375 8.43715C2.37509 8.57637 2.24984 8.81068 2.25 9.06152V18.8115C2.25 19.6399 2.92157 20.3115 3.75 20.3115H20.25C21.0784 20.3115 21.75 19.6399 21.75 18.8115V9.06152C21.7502 8.81068 21.6249 8.57637 21.4163 8.43715ZM9.0675 14.3115L3.75 18.0615V10.5175L9.0675 14.3115ZM10.6022 15.0615H13.3978L18.7069 18.8115H5.29313L10.6022 15.0615ZM14.9325 14.3115L20.25 10.5175V18.0615L14.9325 14.3115ZM12 3.96246L19.6791 9.08215L13.3978 13.5615H10.6041L4.32281 9.08215L12 3.96246Z" fill="#0D141C"/>
</g>
<defs>
<clipPath id="clip0_114_1421">
<rect width="24" height="24" fill="white" transform="translate(0 0.0615234)"/>
</clipPath>
</defs>
</svg>
