<svg width="19" height="19" viewBox="0 0 19 19" fill="none" xmlns="http://www.w3.org/2000/svg">
<path d="M2.39742 7.9167L8.09448 11.7298C8.60233 12.0684 8.8563 12.2377 9.13077 12.3035C9.37325 12.3616 9.62611 12.3616 9.86868 12.3035C10.1432 12.2377 10.3971 12.0684 10.905 11.7298L16.602 7.9167M8.15266 3.22116L3.56103 6.10479C3.12804 6.37671 2.91155 6.51267 2.75452 6.69646C2.61555 6.85913 2.51098 7.04828 2.44713 7.2525C2.375 7.48322 2.375 7.73886 2.375 8.25015V13.3C2.375 14.1868 2.375 14.6302 2.54758 14.9689C2.69937 15.2668 2.94159 15.509 3.23952 15.6608C3.57821 15.8334 4.02158 15.8334 4.90833 15.8334H14.0917C14.9784 15.8334 15.4218 15.8334 15.7605 15.6608C16.0584 15.509 16.3007 15.2668 16.4524 14.9689C16.625 14.6302 16.625 14.1868 16.625 13.3V8.25015C16.625 7.73886 16.625 7.48322 16.5529 7.2525C16.489 7.04828 16.3845 6.85913 16.2455 6.69646C16.0885 6.51267 15.872 6.37671 15.439 6.10479L10.8473 3.22116C10.3586 2.91429 10.1143 2.76086 9.85221 2.70105C9.62033 2.64815 9.37967 2.64815 9.14779 2.70105C8.88567 2.76086 8.64136 2.91429 8.15266 3.22116Z" stroke="#102D4A" stroke-width="2" stroke-linecap="round" stroke-linejoin="round"/>
</svg>
