<svg width="14" height="14" viewBox="0 0 14 14" fill="none" xmlns="http://www.w3.org/2000/svg">
<path d="M12.5278 11.0528C12.0102 10.1327 11.1624 9.0905 9.78223 8.49805C8.99287 9.05028 8.03393 9.37543 7.00014 9.37543C5.96578 9.37543 5.00684 9.05031 4.21745 8.49805C2.8373 9.0905 1.98951 10.1327 1.47219 11.0528C0.785617 12.2732 1.32391 14 2.51131 14C3.69874 14 7.00017 14 7.00017 14C7.00017 14 10.3013 14 11.4887 14C12.6761 14 13.2144 12.2732 12.5278 11.0528Z" fill="#102D4A"/>
<path d="M7.00006 8.22065C9.02743 8.22065 10.6704 6.57707 10.6704 4.54997V3.67065C10.6704 1.64358 9.02743 0 7.00006 0C4.97238 0 3.3291 1.64358 3.3291 3.67068V4.55C3.3291 6.57707 4.97241 8.22065 7.00006 8.22065Z" fill="#102D4A"/>
</svg>
