<svg width="24" height="25" viewBox="0 0 24 25" fill="none" xmlns="http://www.w3.org/2000/svg">
<g clip-path="url(#clip0_114_1410)">
<path fill-rule="evenodd" clip-rule="evenodd" d="M20.8472 14.8864L16.4306 12.9073L16.4184 12.9017C15.9526 12.7025 15.4177 12.7518 14.9963 13.0329C14.9718 13.0491 14.9483 13.0666 14.9259 13.0854L12.6441 15.0308C11.1984 14.3286 9.70594 12.8473 9.00375 11.4204L10.9519 9.10389C10.9706 9.08045 10.9884 9.05701 11.0053 9.0317C11.2803 8.61147 11.3268 8.08149 11.1291 7.61982V7.60857L9.14437 3.18451C8.88009 2.57467 8.246 2.21145 7.58625 2.29201C4.95833 2.63782 2.99525 4.8802 3 7.53076C3 14.9745 9.05625 21.0308 16.5 21.0308C19.1506 21.0355 21.3929 19.0724 21.7388 16.4445C21.8195 15.785 21.4567 15.151 20.8472 14.8864ZM16.5 19.5308C9.87558 19.5235 4.50723 14.1552 4.5 7.53076C4.4927 5.63694 5.89195 4.03185 7.76906 3.78076C7.76869 3.7845 7.76869 3.78827 7.76906 3.79201L9.73781 8.19826L7.8 10.5176C7.78033 10.5403 7.76246 10.5644 7.74656 10.5898C7.45961 11.0301 7.42405 11.5885 7.65281 12.0617C8.50219 13.7989 10.2525 15.5361 12.0084 16.3845C12.4851 16.6112 13.0459 16.5706 13.485 16.2776C13.5091 16.2614 13.5322 16.2439 13.5544 16.2251L15.8334 14.2808L20.2397 16.2542C20.2397 16.2542 20.2472 16.2542 20.25 16.2542C20.002 18.1341 18.3962 19.5372 16.5 19.5308Z" fill="#0D141C"/>
</g>
<defs>
<clipPath id="clip0_114_1410">
<rect width="24" height="24" fill="white" transform="translate(0 0.0307617)"/>
</clipPath>
</defs>
</svg>
