<svg width="16" height="15" viewBox="0 0 16 15" fill="none" xmlns="http://www.w3.org/2000/svg">
<path d="M2.60587 7.93057L4.91197 5.26007C5.14571 4.96956 5.26259 4.82431 5.32384 4.6614C5.37804 4.51724 5.40046 4.36373 5.38967 4.21071C5.37748 4.03777 5.30677 3.86692 5.16538 3.5252L4.626 2.22174C4.41675 1.71604 4.31212 1.46319 4.13163 1.29746C3.97258 1.15142 3.77327 1.05291 3.55767 1.01377C3.313 0.969368 3.03969 1.03542 2.49307 1.16751L1 1.52838C1 8.86462 6.3123 14 13.9019 14L14.275 12.5565C14.4116 12.0282 14.48 11.7639 14.434 11.5275C14.3935 11.319 14.2917 11.1264 14.1406 10.9726C13.9691 10.7982 13.7075 10.697 13.1844 10.4947L11.9811 10.0295C11.5778 9.8735 11.3761 9.79552 11.1751 9.78958C10.9974 9.7843 10.8209 9.81929 10.6597 9.89184C10.4773 9.97386 10.3238 10.1224 10.0167 10.4192L7.67429 12.6479" stroke="#102D4A" stroke-width="2" stroke-linecap="round" stroke-linejoin="round"/>
</svg>
