<svg width="18" height="26" viewBox="0 0 18 26" fill="none" xmlns="http://www.w3.org/2000/svg">
<path d="M12.7187 9.49805H14.6719C15.1899 9.49805 15.6867 9.70382 16.0529 10.0701C16.4192 10.4364 16.625 10.9332 16.625 11.4512V20.8262C16.625 21.3442 16.4192 21.841 16.0529 22.2072C15.6867 22.5735 15.1899 22.7793 14.6719 22.7793H2.95312C2.43512 22.7793 1.93834 22.5735 1.57206 22.2072C1.20578 21.841 1 21.3442 1 20.8262V11.4512C1 10.9332 1.20578 10.4364 1.57206 10.0701C1.93834 9.70382 2.43512 9.49805 2.95312 9.49805H4.90625M12.7187 6.37305L8.8125 2.4668M8.8125 2.4668L4.90625 6.37305M8.8125 2.4668V15.7969" stroke="black" stroke-width="2" stroke-linecap="round" stroke-linejoin="round"/>
</svg>
