<svg width="24" height="25" viewBox="0 0 24 25" fill="none" xmlns="http://www.w3.org/2000/svg">
<path d="M20.9375 12.0923C20.9381 11.2176 20.81 10.3476 20.5571 9.51024L20.4498 9.15479H20.0784H16.1119H15.5222L15.6186 9.73655C15.8772 11.2964 15.8772 12.8882 15.6186 14.448L15.5222 15.0298H16.1119H20.0784H20.4498L20.5571 14.6743C20.81 13.837 20.9381 12.967 20.9375 12.0923ZM20.9375 12.0923C20.9375 12.0924 20.9375 12.0925 20.9375 12.0927L20.4375 12.0923L20.9375 12.0919C20.9375 12.092 20.9375 12.0922 20.9375 12.0923ZM11.9321 20.5155L11.7281 20.972C11.7281 20.972 11.7281 20.972 11.7281 20.972C11.6441 20.9344 11.5688 20.8798 11.5071 20.8117C10.2395 19.4456 9.31748 17.7025 8.79862 15.7854L8.62794 15.1548H9.28125H14.7188H15.3721L15.2014 15.7854C14.6825 17.7025 13.7604 19.4457 12.4929 20.8118L12.0679 20.5155C12.0465 20.525 12.0234 20.5299 12 20.5298M11.9321 20.5155C11.9535 20.525 11.9766 20.5299 12 20.5298M11.9321 20.5155C11.9108 20.506 11.8918 20.492 11.8763 20.4745L11.9321 20.5155ZM12 20.5298L11.9972 21.0298C11.9982 21.0298 11.9991 21.0298 12 21.0298C12.0009 21.0298 12.0019 21.0298 12.0028 21.0298L12 20.5298ZM3.0625 12.0923C3.06187 12.967 3.19005 13.837 3.44292 14.6743L3.55026 15.0298H3.92157H7.88813H8.47783L8.3814 14.448C8.12285 12.8882 8.12285 11.2964 8.3814 9.73655L8.47783 9.15479H7.88813H3.92157H3.55026L3.44292 9.51024C3.19005 10.3476 3.06187 11.2176 3.0625 12.0923ZM3.0625 12.0923C3.0625 12.0922 3.0625 12.092 3.0625 12.0919L3.5625 12.0923L3.0625 12.0927C3.0625 12.0925 3.0625 12.0924 3.0625 12.0923ZM7.88813 14.5298H7.38153C7.3859 14.557 7.39034 14.5843 7.39486 14.6115L7.88813 14.5298ZM7.88813 14.5298V14.0298H7.81394C7.83583 14.1968 7.86056 14.3634 7.88813 14.5298ZM7.88813 9.65479V10.1548H7.81394C7.83583 9.98782 7.86056 9.82113 7.88813 9.65479ZM7.88813 9.65479L7.39486 9.57302C7.39034 9.60027 7.3859 9.62752 7.38153 9.65479H7.88813ZM12 3.15478C11.9063 3.15466 11.8137 3.17435 11.7281 3.21258L11.7281 3.21259C11.6441 3.25013 11.5689 3.3047 11.5071 3.37281C10.2396 4.7389 9.31749 6.48207 8.79862 8.39916L8.62794 9.02979H9.28125H14.7188H15.3721L15.2014 8.39916C14.6825 6.48205 13.7604 4.73887 12.4929 3.37278C12.4311 3.30468 12.3559 3.25012 12.2719 3.21259L12.2719 3.21258C12.1863 3.17435 12.0937 3.15466 12 3.15478ZM12 3.15478C12.0009 3.15478 12.0018 3.15479 12.0028 3.15479L12 3.65479L11.9972 3.15479C11.9982 3.15479 11.9991 3.15478 12 3.15478ZM19.6472 9.02979H20.4331L20.1001 8.31792C19.5081 7.05244 18.6286 5.94278 17.5318 5.07744C16.4349 4.21209 15.151 3.615 13.7825 3.33377L12.5021 3.07065L13.2801 4.1211C14.2811 5.47275 15 7.01188 15.3942 8.64697L15.4865 9.02979H15.8803H19.6472ZM8.5369 14.6179L8.61066 15.0298H9.02907H14.9709H15.3893L15.4631 14.6179C15.7623 12.9475 15.7623 11.2371 15.4631 9.56664L15.3893 9.15479H14.9709H9.02907H8.61066L8.5369 9.56664C8.23772 11.2371 8.23772 12.9475 8.5369 14.6179ZM10.7199 4.1211L11.4979 3.07065L10.2175 3.33377C8.84897 3.615 7.56511 4.21209 6.46826 5.07744C5.37141 5.94278 4.49192 7.05244 3.89992 8.31792L3.56691 9.02979H4.35282H8.11969H8.51347L8.60576 8.64697C8.99997 7.01188 9.71895 5.47275 10.7199 4.1211ZM4.35282 15.1548H3.56691L3.89992 15.8666C4.49192 17.1321 5.37141 18.2418 6.46826 19.1071C7.56511 19.9725 8.84897 20.5696 10.2175 20.8508L11.4979 21.1139L10.7199 20.0635C9.71895 18.7118 8.99997 17.1727 8.60576 15.5376L8.51347 15.1548H8.11969H4.35282ZM12.5021 21.1139L13.7825 20.8508C15.151 20.5696 16.4349 19.9725 17.5318 19.1071C18.6286 18.2418 19.5081 17.1321 20.1001 15.8666L20.4331 15.1548H19.6472H15.8803H15.4865L15.3942 15.5376C15 17.1727 14.2811 18.7118 13.2801 20.0635L12.5021 21.1139ZM6.96515 4.55709C8.45539 3.56134 10.2074 3.02984 11.9997 3.02979C14.4024 3.03269 16.7059 3.98844 18.4049 5.68742C20.1039 7.38647 21.0597 9.69006 21.0625 12.0929C21.0624 13.8851 20.5309 15.637 19.5352 17.1271C18.5394 18.6175 17.124 19.779 15.4681 20.4649C13.8121 21.1509 11.99 21.3303 10.232 20.9807C8.47405 20.631 6.85926 19.7679 5.59185 18.5004C4.32444 17.233 3.46132 15.6182 3.11164 13.8603C2.76196 12.1023 2.94143 10.2802 3.62735 8.62422C4.31327 6.96826 5.47483 5.55289 6.96515 4.55709Z" fill="black" stroke="black"/>
</svg>
